<?xml version="1.0" encoding="UTF-8" standalone="no"?><svg xmlns="http://www.w3.org/2000/svg" xmlns:xlink="http://www.w3.org/1999/xlink" height="268" version="1.1" width="652"><defs/><g><g transform="translate(-86,-62) scale(1,1)"><path d="M 103 177 L 168.80810546875 177 L 168.80810546875 213 L 103 213" fill="#C0C0C0" opacity="0.2" stroke="none"/></g><g transform="translate(-86,-62) scale(1,1)"><path d="M 103 177 L 113 167 L 178.80810546875 167 L 168.80810546875 177" fill="#C0C0C0" opacity="0.2" stroke="none"/></g><g transform="translate(-86,-62) scale(1,1)"><path d="M 178.80810546875 167 L 168.80810546875 177 L 168.80810546875 213 L 178.80810546875 203" fill="#C0C0C0" opacity="0.2" stroke="none"/></g><g transform="translate(-86,-62) scale(1,1)"><path d="M 96 170 L 161.80810546875 170 L 161.80810546875 206 L 96 206" fill="#ffffff" stroke="none"/></g><g transform="translate(-86,-62) scale(1,1)"><path d="M 96 170 L 106 160 L 171.80810546875 160 L 161.80810546875 170" fill="#ffffff" stroke="none"/></g><g transform="translate(-86,-62) scale(1,1)"><path d="M 171.80810546875 160 L 161.80810546875 170 L 161.80810546875 206 L 171.80810546875 196" fill="#ffffff" stroke="none"/></g><g transform="translate(-86,-62) scale(1,1)"><path d="M 96 170 L 161.80810546875 170 L 161.80810546875 206 L 96 206 L 96 170" fill="none" stroke="#000000" stroke-miterlimit="10"/></g><g transform="translate(-86,-62) scale(1,1)"><path d="M 96 170 L 106 160 L 171.80810546875 160 L 161.80810546875 170 L 96 170" fill="none" stroke="#000000" stroke-miterlimit="10"/></g><g transform="translate(-86,-62) scale(1,1)"><path d="M 171.80810546875 160 L 161.80810546875 170 L 161.80810546875 206 L 171.80810546875 196 L 171.80810546875 160" fill="none" stroke="#000000" stroke-miterlimit="10"/></g><g transform="translate(-86,-62) scale(1,1)"><g><path fill="none" stroke="none"/><text fill="#000000" font-family="Arial" font-size="13px" font-style="normal" font-weight="bold" stroke="none" text-decoration="none" x="112.785888671875" y="189.5">Client</text></g></g><g transform="translate(-86,-62) scale(1,1)"><path d="M 246 176 L 419 176 L 419 325 L 246 325" fill="#C0C0C0" opacity="0.2" stroke="none"/></g><g transform="translate(-86,-62) scale(1,1)"><path d="M 246 176 L 256 166 L 429 166 L 419 176" fill="#C0C0C0" opacity="0.2" stroke="none"/></g><g transform="translate(-86,-62) scale(1,1)"><path d="M 429 166 L 419 176 L 419 325 L 429 315" fill="#C0C0C0" opacity="0.2" stroke="none"/></g><g transform="translate(-86,-62) scale(1,1)"><path d="M 239 169 L 412 169 L 412 318 L 239 318" fill="#d8f2ff" stroke="none"/></g><g transform="translate(-86,-62) scale(1,1)"><path d="M 239 169 L 249 159 L 422 159 L 412 169" fill="#d8f2ff" stroke="none"/></g><g transform="translate(-86,-62) scale(1,1)"><path d="M 422 159 L 412 169 L 412 318 L 422 308" fill="#d8f2ff" stroke="none"/></g><g transform="translate(-86,-62) scale(1,1)"><path d="M 239 169 L 412 169 L 412 318 L 239 318 L 239 169" fill="none" stroke="#000000" stroke-miterlimit="10"/></g><g transform="translate(-86,-62) scale(1,1)"><path d="M 239 169 L 249 159 L 422 159 L 412 169 L 239 169" fill="none" stroke="#000000" stroke-miterlimit="10"/></g><g transform="translate(-86,-62) scale(1,1)"><path d="M 422 159 L 412 169 L 412 318 L 422 308 L 422 159" fill="none" stroke="#000000" stroke-miterlimit="10"/></g><g transform="translate(-86,-62) scale(1,1)"><g><path fill="none" stroke="none"/><text fill="#000000" font-family="Arial" font-size="13px" font-style="normal" font-weight="normal" stroke="none" text-decoration="none" x="300.7109375" y="186.5">«server»</text></g></g><g transform="translate(-86,-62) scale(1,1)"><g><path fill="none" stroke="none"/><text fill="#000000" font-family="Arial" font-size="13px" font-style="normal" font-weight="bold" stroke="none" text-decoration="none" x="299.62548828125" y="201.5">Buisness</text></g></g><g transform="translate(-86,-62) scale(1,1)"><path d="M 551 177 L 724 177 L 724 326 L 551 326" fill="#C0C0C0" opacity="0.2" stroke="none"/></g><g transform="translate(-86,-62) scale(1,1)"><path d="M 551 177 L 561 167 L 734 167 L 724 177" fill="#C0C0C0" opacity="0.2" stroke="none"/></g><g transform="translate(-86,-62) scale(1,1)"><path d="M 734 167 L 724 177 L 724 326 L 734 316" fill="#C0C0C0" opacity="0.2" stroke="none"/></g><g transform="translate(-86,-62) scale(1,1)"><path d="M 544 170 L 717 170 L 717 319 L 544 319" fill="#ffd8d8" stroke="none"/></g><g transform="translate(-86,-62) scale(1,1)"><path d="M 544 170 L 554 160 L 727 160 L 717 170" fill="#ffd8d8" stroke="none"/></g><g transform="translate(-86,-62) scale(1,1)"><path d="M 727 160 L 717 170 L 717 319 L 727 309" fill="#ffd8d8" stroke="none"/></g><g transform="translate(-86,-62) scale(1,1)"><path d="M 544 170 L 717 170 L 717 319 L 544 319 L 544 170" fill="none" stroke="#000000" stroke-miterlimit="10"/></g><g transform="translate(-86,-62) scale(1,1)"><path d="M 544 170 L 554 160 L 727 160 L 717 170 L 544 170" fill="none" stroke="#000000" stroke-miterlimit="10"/></g><g transform="translate(-86,-62) scale(1,1)"><path d="M 727 160 L 717 170 L 717 319 L 727 309 L 727 160" fill="none" stroke="#000000" stroke-miterlimit="10"/></g><g transform="translate(-86,-62) scale(1,1)"><g><path fill="none" stroke="none"/><text fill="#000000" font-family="Arial" font-size="13px" font-style="normal" font-weight="normal" stroke="none" text-decoration="none" x="605.7109375" y="187.5">«server»</text></g></g><g transform="translate(-86,-62) scale(1,1)"><g><path fill="none" stroke="none"/><text fill="#000000" font-family="Arial" font-size="13px" font-style="normal" font-weight="bold" stroke="none" text-decoration="none" x="603.175048828125" y="202.5">Database</text></g></g><g transform="translate(-86,-62) scale(1,1)"><path d="M 173 183 L 239 183" fill="none" stroke="#000000" stroke-miterlimit="10"/></g><g transform="translate(-86,-62) scale(1,1)"><g><path fill="none" stroke="none"/><text fill="#000000" font-family="Arial" font-size="13px" font-style="normal" font-weight="normal" stroke="none" text-decoration="none" x="187.5" y="159.5">«http»</text></g></g><g transform="translate(-86,-62) scale(1,1)"><path d="M 423 183 L 544 183" fill="none" stroke="#000000" stroke-miterlimit="10"/></g><g transform="translate(-86,-62) scale(1,1)"><g><path fill="none" stroke="none"/><text fill="#000000" font-family="Arial" font-size="13px" font-style="normal" font-weight="normal" stroke="none" text-decoration="none" x="467.5" y="159.5">«sql»</text></g></g><g transform="translate(-86,-62) scale(1,1)"><rect fill="#C0C0C0" height="44" opacity="0.2" stroke="none" width="98.44091796875" x="593" y="239"/></g><g transform="translate(-86,-62) scale(1,1)"><rect fill="#ffadad" height="44" stroke="none" width="98.44091796875" x="586" y="232"/></g><g transform="translate(-86,-62) scale(1,1)"><path d="M 586 232 L 684.44091796875 232 L 684.44091796875 276 L 586 276 L 586 232 Z Z" fill="none" stroke="#000000" stroke-miterlimit="10"/></g><g transform="translate(-86,-62) scale(1,1)"><rect fill="#ffadad" height="10" stroke="none" width="20" x="576" y="239"/></g><g transform="translate(-86,-62) scale(1,1)"><path d="M 576 239 L 596 239 L 596 249 L 576 249 L 576 239 Z Z" fill="none" stroke="#000000" stroke-miterlimit="10"/></g><g transform="translate(-86,-62) scale(1,1)"><rect fill="#ffadad" height="10" stroke="none" width="20" x="576" y="259"/></g><g transform="translate(-86,-62) scale(1,1)"><path d="M 576 259 L 596 259 L 596 269 L 576 269 L 576 259 Z Z" fill="none" stroke="#000000" stroke-miterlimit="10"/></g><g transform="translate(-86,-62) scale(1,1)"><g><path fill="none" stroke="none"/><text fill="#000000" font-family="Arial" font-size="13px" font-style="normal" font-weight="bold" stroke="none" text-decoration="none" x="627.214111328125" y="251.5">SQL</text></g></g><g transform="translate(-86,-62) scale(1,1)"><path d="M 480.5 250.5 C 480.5 244.1487248 485.6487248 239 492 239 C 498.3512752 239 503.5 244.1487248 503.5 250.5 C 503.5 256.8512752 498.3512752 262 492 262 C 485.6487248 262 480.5 256.8512752 480.5 250.5 Z" fill="#C0C0C0" opacity="0.2" stroke="none"/></g><g transform="translate(-86,-62) scale(1,1)"><path d="M 485 254.5 A 11.5 11.5 0 0 1 485 231.5" fill="none" stroke="#000000" stroke-miterlimit="10"/></g><g transform="translate(-86,-62) scale(1,1)"><path d="M 476.5 243.5 C 476.5 238.8055792 480.3055792 235 485 235 C 489.6944208 235 493.5 238.8055792 493.5 243.5 C 493.5 248.1944208 489.6944208 252 485 252 C 480.3055792 252 476.5 248.1944208 476.5 243.5 Z" fill="#ffffff" stroke="none"/></g><g transform="translate(-86,-62) scale(1,1)"><path d="M 476.5 243.5 C 476.5 238.8055792 480.3055792 235 485 235 C 489.6944208 235 493.5 238.8055792 493.5 243.5 C 493.5 248.1944208 489.6944208 252 485 252 C 480.3055792 252 476.5 248.1944208 476.5 243.5 Z" fill="none" stroke="#000000" stroke-miterlimit="10"/></g><g transform="translate(-86,-62) scale(1,1)"><g><path fill="none" stroke="none"/><text fill="#000000" font-family="Arial" font-size="13px" font-style="normal" font-weight="bold" stroke="none" text-decoration="none" x="455.010498046875" y="274.5">Connector</text></g></g><g transform="translate(-86,-62) scale(1,1)"><rect fill="#C0C0C0" height="44" opacity="0.2" stroke="none" width="98.44091796875" x="286" y="240"/></g><g transform="translate(-86,-62) scale(1,1)"><rect fill="#a3e0ff" height="44" stroke="none" width="98.44091796875" x="279" y="233"/></g><g transform="translate(-86,-62) scale(1,1)"><path d="M 279 233 L 377.44091796875 233 L 377.44091796875 277 L 279 277 L 279 233 Z Z" fill="none" stroke="#000000" stroke-miterlimit="10"/></g><g transform="translate(-86,-62) scale(1,1)"><rect fill="#a3e0ff" height="10" stroke="none" width="20" x="269" y="240"/></g><g transform="translate(-86,-62) scale(1,1)"><path d="M 269 240 L 289 240 L 289 250 L 269 250 L 269 240 Z Z" fill="none" stroke="#000000" stroke-miterlimit="10"/></g><g transform="translate(-86,-62) scale(1,1)"><rect fill="#a3e0ff" height="10" stroke="none" width="20" x="269" y="260"/></g><g transform="translate(-86,-62) scale(1,1)"><path d="M 269 260 L 289 260 L 289 270 L 269 270 L 269 260 Z Z" fill="none" stroke="#000000" stroke-miterlimit="10"/></g><g transform="translate(-86,-62) scale(1,1)"><g><path fill="none" stroke="none"/><text fill="#000000" font-family="Arial" font-size="13px" font-style="normal" font-weight="bold" stroke="none" text-decoration="none" x="316.246826171875" y="252.5">JDBC</text></g></g><g transform="translate(-86,-62) scale(1,1)"><path d="M 576 243 L 496.5 243" fill="none" stroke="#000000" stroke-miterlimit="10"/></g><g transform="translate(-86,-62) scale(1,1)"><path d="M 377 243 L 473.5 243" fill="none" stroke="#000000" stroke-miterlimit="10"/></g><g transform="translate(-86,-62) scale(1,1)"><g><path fill="none" stroke="none"/><text fill="#000000" font-family="Arial" font-size="20px" font-style="normal" font-weight="normal" stroke="none" text-decoration="none" x="101" y="97">Server Side</text></g></g></g></svg>