<?xml version="1.0" encoding="UTF-8" standalone="no"?><svg xmlns="http://www.w3.org/2000/svg" xmlns:xlink="http://www.w3.org/1999/xlink" height="490" version="1.1" width="595.18994140625"><defs/><g><g transform="translate(-62,-46) scale(1,1)"><path d="M 340 271 L 393.18994140625 271 Q 403.18994140625 271 403.18994140625 281 L 403.18994140625 329 Q 403.18994140625 339 393.18994140625 339 L 340 339 Q 330 339 330 329 L 330 281 Q 330 271 340 271 Z" fill="#C0C0C0" opacity="0.2" stroke="none"/></g><g transform="translate(-62,-46) scale(1,1)"><path d="M 333 264 L 386.18994140625 264 Q 396.18994140625 264 396.18994140625 274 L 396.18994140625 322 Q 396.18994140625 332 386.18994140625 332 L 333 332 Q 323 332 323 322 L 323 274 Q 323 264 333 264 Z" fill="#ffffff" stroke="none"/></g><g transform="translate(-62,-46) scale(1,1)"><path d="M 333 264 L 386.18994140625 264 Q 396.18994140625 264 396.18994140625 274 L 396.18994140625 322 Q 396.18994140625 332 386.18994140625 332 L 333 332 Q 323 332 323 322 L 323 274 Q 323 264 333 264 Z" fill="none" stroke="#000000" stroke-miterlimit="10"/></g><g transform="translate(-62,-46) scale(1,1)"><path d="M 323 287 L 396.18994140625 287" fill="none" stroke="#000000" stroke-miterlimit="10"/></g><g transform="translate(-62,-46) scale(1,1)"><g><path fill="none" stroke="none"/><text fill="#000000" font-family="Arial" font-size="13px" font-style="normal" font-weight="normal" stroke="none" text-decoration="none" x="345.871337890625" y="308.5">User</text><text fill="#000000" font-family="Arial" font-size="13px" font-style="normal" font-weight="normal" stroke="none" text-decoration="none" x="334.302734375" y="321.5">Interface</text></g></g><g transform="translate(-62,-46) scale(1,1)"><g><path fill="none" stroke="none"/><text fill="#000000" font-family="Arial" font-size="13px" font-style="normal" font-weight="normal" stroke="none" text-decoration="none" x="359.594970703125" y="281.5"/></g></g><g transform="translate(-62,-46) scale(1,1)"><path d="M 337 478 L 390.18994140625 478 Q 400.18994140625 478 400.18994140625 488 L 400.18994140625 523 Q 400.18994140625 533 390.18994140625 533 L 337 533 Q 327 533 327 523 L 327 488 Q 327 478 337 478 Z" fill="#C0C0C0" opacity="0.2" stroke="none"/></g><g transform="translate(-62,-46) scale(1,1)"><path d="M 330 471 L 383.18994140625 471 Q 393.18994140625 471 393.18994140625 481 L 393.18994140625 516 Q 393.18994140625 526 383.18994140625 526 L 330 526 Q 320 526 320 516 L 320 481 Q 320 471 330 471 Z" fill="#d8f2ff" stroke="none"/></g><g transform="translate(-62,-46) scale(1,1)"><path d="M 330 471 L 383.18994140625 471 Q 393.18994140625 471 393.18994140625 481 L 393.18994140625 516 Q 393.18994140625 526 383.18994140625 526 L 330 526 Q 320 526 320 516 L 320 481 Q 320 471 330 471 Z" fill="none" stroke="#000000" stroke-miterlimit="10"/></g><g transform="translate(-62,-46) scale(1,1)"><path d="M 320 494 L 393.18994140625 494" fill="none" stroke="#000000" stroke-miterlimit="10"/></g><g transform="translate(-62,-46) scale(1,1)"><g><path fill="none" stroke="none"/><text fill="#000000" font-family="Arial" font-size="13px" font-style="normal" font-weight="normal" stroke="none" text-decoration="none" x="330.220458984375" y="515.5">Buisness</text></g></g><g transform="translate(-62,-46) scale(1,1)"><g><path fill="none" stroke="none"/><text fill="#000000" font-family="Arial" font-size="13px" font-style="normal" font-weight="normal" stroke="none" text-decoration="none" x="356.594970703125" y="488.5"/></g></g><g transform="translate(-62,-46) scale(1,1)"><path d="M 591 278 L 644.18994140625 278 Q 654.18994140625 278 654.18994140625 288 L 654.18994140625 323 Q 654.18994140625 333 644.18994140625 333 L 591 333 Q 581 333 581 323 L 581 288 Q 581 278 591 278 Z" fill="#C0C0C0" opacity="0.2" stroke="none"/></g><g transform="translate(-62,-46) scale(1,1)"><path d="M 584 271 L 637.18994140625 271 Q 647.18994140625 271 647.18994140625 281 L 647.18994140625 316 Q 647.18994140625 326 637.18994140625 326 L 584 326 Q 574 326 574 316 L 574 281 Q 574 271 584 271 Z" fill="#d8f2ff" stroke="none"/></g><g transform="translate(-62,-46) scale(1,1)"><path d="M 584 271 L 637.18994140625 271 Q 647.18994140625 271 647.18994140625 281 L 647.18994140625 316 Q 647.18994140625 326 637.18994140625 326 L 584 326 Q 574 326 574 316 L 574 281 Q 574 271 584 271 Z" fill="none" stroke="#000000" stroke-miterlimit="10"/></g><g transform="translate(-62,-46) scale(1,1)"><path d="M 574 294 L 647.18994140625 294" fill="none" stroke="#000000" stroke-miterlimit="10"/></g><g transform="translate(-62,-46) scale(1,1)"><g><path fill="none" stroke="none"/><text fill="#000000" font-family="Arial" font-size="13px" font-style="normal" font-weight="normal" stroke="none" text-decoration="none" x="584.220458984375" y="315.5">Buisness</text></g></g><g transform="translate(-62,-46) scale(1,1)"><g><path fill="none" stroke="none"/><text fill="#000000" font-family="Arial" font-size="13px" font-style="normal" font-weight="normal" stroke="none" text-decoration="none" x="610.594970703125" y="288.5"/></g></g><g transform="translate(-62,-46) scale(1,1)"><path d="M 337 71 L 390.18994140625 71 Q 400.18994140625 71 400.18994140625 81 L 400.18994140625 116 Q 400.18994140625 126 390.18994140625 126 L 337 126 Q 327 126 327 116 L 327 81 Q 327 71 337 71 Z" fill="#C0C0C0" opacity="0.2" stroke="none"/></g><g transform="translate(-62,-46) scale(1,1)"><path d="M 330 64 L 383.18994140625 64 Q 393.18994140625 64 393.18994140625 74 L 393.18994140625 109 Q 393.18994140625 119 383.18994140625 119 L 330 119 Q 320 119 320 109 L 320 74 Q 320 64 330 64 Z" fill="#d8f2ff" stroke="none"/></g><g transform="translate(-62,-46) scale(1,1)"><path d="M 330 64 L 383.18994140625 64 Q 393.18994140625 64 393.18994140625 74 L 393.18994140625 109 Q 393.18994140625 119 383.18994140625 119 L 330 119 Q 320 119 320 109 L 320 74 Q 320 64 330 64 Z" fill="none" stroke="#000000" stroke-miterlimit="10"/></g><g transform="translate(-62,-46) scale(1,1)"><path d="M 320 87 L 393.18994140625 87" fill="none" stroke="#000000" stroke-miterlimit="10"/></g><g transform="translate(-62,-46) scale(1,1)"><g><path fill="none" stroke="none"/><text fill="#000000" font-family="Arial" font-size="13px" font-style="normal" font-weight="normal" stroke="none" text-decoration="none" x="330.220458984375" y="108.5">Buisness</text></g></g><g transform="translate(-62,-46) scale(1,1)"><g><path fill="none" stroke="none"/><text fill="#000000" font-family="Arial" font-size="13px" font-style="normal" font-weight="normal" stroke="none" text-decoration="none" x="356.594970703125" y="81.5"/></g></g><g transform="translate(-62,-46) scale(1,1)"><rect fill="#C0C0C0" height="32" opacity="0.2" stroke="none" width="48" x="339" y="181"/></g><g transform="translate(-62,-46) scale(1,1)"><rect fill="#a3e0ff" height="32" stroke="none" width="48" x="332" y="174"/></g><g transform="translate(-62,-46) scale(1,1)"><path d="M 332 174 L 380 174 L 380 206 L 332 206 L 332 174 Z Z" fill="none" stroke="#000000" stroke-miterlimit="10"/></g><g transform="translate(-62,-46) scale(1,1)"><g><path fill="none" stroke="none"/><text fill="#000000" font-family="Arial" font-size="13px" font-style="normal" font-weight="normal" stroke="none" text-decoration="none" x="356" y="191.5"/></g></g><g transform="translate(-62,-46) scale(1,1)"><g><path fill="none" stroke="none"/><text fill="#000000" font-family="Arial" font-size="13px" font-style="normal" font-weight="normal" stroke="none" text-decoration="none" x="347.325927734375" y="196.5">api</text></g></g><g transform="translate(-62,-46) scale(1,1)"><g><path fill="none" stroke="none"/><text fill="#000000" font-family="Arial" font-size="13px" font-style="normal" font-weight="normal" stroke="none" text-decoration="none" x="-96.5" y="-3.5"/></g></g><g transform="translate(-62,-46) scale(1,1)"><rect fill="#C0C0C0" height="32" opacity="0.2" stroke="none" width="48" x="339" y="391"/></g><g transform="translate(-62,-46) scale(1,1)"><rect fill="#a3e0ff" height="32" stroke="none" width="48" x="332" y="384"/></g><g transform="translate(-62,-46) scale(1,1)"><path d="M 332 384 L 380 384 L 380 416 L 332 416 L 332 384 Z Z" fill="none" stroke="#000000" stroke-miterlimit="10"/></g><g transform="translate(-62,-46) scale(1,1)"><g><path fill="none" stroke="none"/><text fill="#000000" font-family="Arial" font-size="13px" font-style="normal" font-weight="normal" stroke="none" text-decoration="none" x="356" y="401.5"/></g></g><g transform="translate(-62,-46) scale(1,1)"><g><path fill="none" stroke="none"/><text fill="#000000" font-family="Arial" font-size="13px" font-style="normal" font-weight="normal" stroke="none" text-decoration="none" x="-94.5" y="173.5"/></g></g><g transform="translate(-62,-46) scale(1,1)"><g><path fill="none" stroke="none"/><text fill="#000000" font-family="Arial" font-size="13px" font-style="normal" font-weight="normal" stroke="none" text-decoration="none" x="362" y="362.5"/></g></g><g transform="translate(-62,-46) scale(1,1)"><g><path fill="none" stroke="none"/><text fill="#000000" font-family="Arial" font-size="13px" font-style="normal" font-weight="normal" stroke="none" text-decoration="none" x="347.325927734375" y="406.5">api</text></g></g><g transform="translate(-62,-46) scale(1,1)"><g><path fill="none" stroke="none"/><text fill="#000000" font-family="Arial" font-size="13px" font-style="normal" font-weight="normal" stroke="none" text-decoration="none" x="-94.5" y="173.5"/></g></g><g transform="translate(-62,-46) scale(1,1)"><rect fill="#C0C0C0" height="32" opacity="0.2" stroke="none" width="48" x="468" y="289"/></g><g transform="translate(-62,-46) scale(1,1)"><rect fill="#a3e0ff" height="32" stroke="none" width="48" x="461" y="282"/></g><g transform="translate(-62,-46) scale(1,1)"><path d="M 461 282 L 509 282 L 509 314 L 461 314 L 461 282 Z Z" fill="none" stroke="#000000" stroke-miterlimit="10"/></g><g transform="translate(-62,-46) scale(1,1)"><g><path fill="none" stroke="none"/><text fill="#000000" font-family="Arial" font-size="13px" font-style="normal" font-weight="normal" stroke="none" text-decoration="none" x="485" y="299.5"/></g></g><g transform="translate(-62,-46) scale(1,1)"><g><path fill="none" stroke="none"/><text fill="#000000" font-family="Arial" font-size="13px" font-style="normal" font-weight="normal" stroke="none" text-decoration="none" x="55.5" y="100.5"/></g></g><g transform="translate(-62,-46) scale(1,1)"><g><path fill="none" stroke="none"/><text fill="#000000" font-family="Arial" font-size="13px" font-style="normal" font-weight="normal" stroke="none" text-decoration="none" x="512" y="289.5"/></g></g><g transform="translate(-62,-46) scale(1,1)"><g><path fill="none" stroke="none"/><text fill="#000000" font-family="Arial" font-size="13px" font-style="normal" font-weight="normal" stroke="none" text-decoration="none" x="476.325927734375" y="304.5">api</text></g></g><g transform="translate(-62,-46) scale(1,1)"><g><path fill="none" stroke="none"/><text fill="#000000" font-family="Arial" font-size="13px" font-style="normal" font-weight="normal" stroke="none" text-decoration="none" x="55.5" y="100.5"/></g></g><g transform="translate(-62,-46) scale(1,1)"><path d="M 356 174 L 356 119" fill="none" stroke="#000000" stroke-miterlimit="10"/></g><g transform="translate(-62,-46) scale(1,1)"><path d="M 360.209517756016 129.16267485762415 L 356 119 L 351.790482243984 129.16267485762415" fill="#000000" stroke="none"/></g><g transform="translate(-62,-46) scale(1,1)"><path d="M 360.209517756016 129.16267485762415 L 356 119 L 351.790482243984 129.16267485762415 L 360.209517756016 129.16267485762415" fill="none" stroke="#000000" stroke-miterlimit="10"/></g><g transform="translate(-62,-46) scale(1,1)"><path d="M 356 119 L 356 174" fill="none" stroke="#000000" stroke-miterlimit="10"/></g><g transform="translate(-62,-46) scale(1,1)"><path d="M 351.790482243984 163.83732514237585 L 356 174 L 360.209517756016 163.83732514237585" fill="#000000" stroke="none"/></g><g transform="translate(-62,-46) scale(1,1)"><path d="M 351.790482243984 163.83732514237585 L 356 174 L 360.209517756016 163.83732514237585 L 351.790482243984 163.83732514237585" fill="none" stroke="#000000" stroke-miterlimit="10"/></g><g transform="translate(-62,-46) scale(1,1)"><path d="M 356 416 L 356 471" fill="none" stroke="#000000" stroke-miterlimit="10"/></g><g transform="translate(-62,-46) scale(1,1)"><path d="M 351.790482243984 460.83732514237585 L 356 471 L 360.209517756016 460.83732514237585" fill="#000000" stroke="none"/></g><g transform="translate(-62,-46) scale(1,1)"><path d="M 351.790482243984 460.83732514237585 L 356 471 L 360.209517756016 460.83732514237585 L 351.790482243984 460.83732514237585" fill="none" stroke="#000000" stroke-miterlimit="10"/></g><g transform="translate(-62,-46) scale(1,1)"><path d="M 356 471 L 356 416" fill="none" stroke="#000000" stroke-miterlimit="10"/></g><g transform="translate(-62,-46) scale(1,1)"><path d="M 360.209517756016 426.16267485762415 L 356 416 L 351.790482243984 426.16267485762415" fill="#000000" stroke="none"/></g><g transform="translate(-62,-46) scale(1,1)"><path d="M 360.209517756016 426.16267485762415 L 356 416 L 351.790482243984 426.16267485762415 L 360.209517756016 426.16267485762415" fill="none" stroke="#000000" stroke-miterlimit="10"/></g><g transform="translate(-62,-46) scale(1,1)"><path d="M 356 206 L 356 264" fill="none" stroke="#000000" stroke-miterlimit="10"/></g><g transform="translate(-62,-46) scale(1,1)"><path d="M 351.790482243984 253.83732514237585 L 356 264 L 360.209517756016 253.83732514237585" fill="#000000" stroke="none"/></g><g transform="translate(-62,-46) scale(1,1)"><path d="M 351.790482243984 253.83732514237585 L 356 264 L 360.209517756016 253.83732514237585 L 351.790482243984 253.83732514237585" fill="none" stroke="#000000" stroke-miterlimit="10"/></g><g transform="translate(-62,-46) scale(1,1)"><path d="M 356 264 L 356 206" fill="none" stroke="#000000" stroke-miterlimit="10"/></g><g transform="translate(-62,-46) scale(1,1)"><path d="M 360.209517756016 216.16267485762415 L 356 206 L 351.790482243984 216.16267485762415" fill="#000000" stroke="none"/></g><g transform="translate(-62,-46) scale(1,1)"><path d="M 360.209517756016 216.16267485762415 L 356 206 L 351.790482243984 216.16267485762415 L 360.209517756016 216.16267485762415" fill="none" stroke="#000000" stroke-miterlimit="10"/></g><g transform="translate(-62,-46) scale(1,1)"><path d="M 357 332 L 357 384" fill="none" stroke="#000000" stroke-miterlimit="10"/></g><g transform="translate(-62,-46) scale(1,1)"><path d="M 352.790482243984 373.83732514237585 L 357 384 L 361.209517756016 373.83732514237585" fill="#000000" stroke="none"/></g><g transform="translate(-62,-46) scale(1,1)"><path d="M 352.790482243984 373.83732514237585 L 357 384 L 361.209517756016 373.83732514237585 L 352.790482243984 373.83732514237585" fill="none" stroke="#000000" stroke-miterlimit="10"/></g><g transform="translate(-62,-46) scale(1,1)"><path d="M 357 384 L 357 332" fill="none" stroke="#000000" stroke-miterlimit="10"/></g><g transform="translate(-62,-46) scale(1,1)"><path d="M 361.209517756016 342.16267485762415 L 357 332 L 352.790482243984 342.16267485762415" fill="#000000" stroke="none"/></g><g transform="translate(-62,-46) scale(1,1)"><path d="M 361.209517756016 342.16267485762415 L 357 332 L 352.790482243984 342.16267485762415 L 361.209517756016 342.16267485762415" fill="none" stroke="#000000" stroke-miterlimit="10"/></g><g transform="translate(-62,-46) scale(1,1)"><path d="M 396 299 L 461 299" fill="none" stroke="#000000" stroke-miterlimit="10"/></g><g transform="translate(-62,-46) scale(1,1)"><path d="M 450.83732514237585 303.209517756016 L 461 299 L 450.83732514237585 294.790482243984" fill="#000000" stroke="none"/></g><g transform="translate(-62,-46) scale(1,1)"><path d="M 450.83732514237585 303.209517756016 L 461 299 L 450.83732514237585 294.790482243984 L 450.83732514237585 303.209517756016" fill="none" stroke="#000000" stroke-miterlimit="10"/></g><g transform="translate(-62,-46) scale(1,1)"><path d="M 461 299 L 396 299" fill="none" stroke="#000000" stroke-miterlimit="10"/></g><g transform="translate(-62,-46) scale(1,1)"><path d="M 406.16267485762415 294.790482243984 L 396 299 L 406.16267485762415 303.209517756016" fill="#000000" stroke="none"/></g><g transform="translate(-62,-46) scale(1,1)"><path d="M 406.16267485762415 294.790482243984 L 396 299 L 406.16267485762415 303.209517756016 L 406.16267485762415 294.790482243984" fill="none" stroke="#000000" stroke-miterlimit="10"/></g><g transform="translate(-62,-46) scale(1,1)"><path d="M 509 299 L 574 299" fill="none" stroke="#000000" stroke-miterlimit="10"/></g><g transform="translate(-62,-46) scale(1,1)"><path d="M 563.8373251423759 303.209517756016 L 574 299 L 563.8373251423758 294.790482243984" fill="#000000" stroke="none"/></g><g transform="translate(-62,-46) scale(1,1)"><path d="M 563.8373251423759 303.209517756016 L 574 299 L 563.8373251423758 294.790482243984 L 563.8373251423759 303.209517756016" fill="none" stroke="#000000" stroke-miterlimit="10"/></g><g transform="translate(-62,-46) scale(1,1)"><path d="M 574 299 L 509 299" fill="none" stroke="#000000" stroke-miterlimit="10"/></g><g transform="translate(-62,-46) scale(1,1)"><path d="M 519.1626748576241 294.790482243984 L 509 299 L 519.1626748576241 303.209517756016" fill="#000000" stroke="none"/></g><g transform="translate(-62,-46) scale(1,1)"><path d="M 519.1626748576241 294.790482243984 L 509 299 L 519.1626748576241 303.209517756016 L 519.1626748576241 294.790482243984" fill="none" stroke="#000000" stroke-miterlimit="10"/></g><g transform="translate(-62,-46) scale(1,1)"><path d="M 376 207 L 465 281" fill="none" stroke="#000000" stroke-miterlimit="10"/></g><g transform="translate(-62,-46) scale(1,1)"><path d="M 454.49433611775765 277.7394745218986 L 465 281 L 459.8769135037968 271.26583415220284" fill="#000000" stroke="none"/></g><g transform="translate(-62,-46) scale(1,1)"><path d="M 454.49433611775765 277.7394745218986 L 465 281 L 459.8769135037968 271.26583415220284 L 454.49433611775765 277.7394745218986" fill="none" stroke="#000000" stroke-miterlimit="10"/></g><g transform="translate(-62,-46) scale(1,1)"><path d="M 465 281 L 376 207" fill="none" stroke="#000000" stroke-miterlimit="10"/></g><g transform="translate(-62,-46) scale(1,1)"><path d="M 386.50566388224235 210.26052547810139 L 376 207 L 381.1230864962032 216.73416584779716" fill="#000000" stroke="none"/></g><g transform="translate(-62,-46) scale(1,1)"><path d="M 386.50566388224235 210.26052547810139 L 376 207 L 381.1230864962032 216.73416584779716 L 386.50566388224235 210.26052547810139" fill="none" stroke="#000000" stroke-miterlimit="10"/></g><g transform="translate(-62,-46) scale(1,1)"><path d="M 378 383 L 428 344 L 464 315" fill="none" stroke="#000000" stroke-miterlimit="10"/></g><g transform="translate(-62,-46) scale(1,1)"><path d="M 458.726532056431 324.65352452983626 L 464 315 L 453.4450223993346 318.09716771413036" fill="#000000" stroke="none"/></g><g transform="translate(-62,-46) scale(1,1)"><path d="M 458.726532056431 324.65352452983626 L 464 315 L 453.4450223993346 318.09716771413036 L 458.726532056431 324.65352452983626" fill="none" stroke="#000000" stroke-miterlimit="10"/></g><g transform="translate(-62,-46) scale(1,1)"><path d="M 464 315 L 428 344 L 378 383" fill="none" stroke="#000000" stroke-miterlimit="10"/></g><g transform="translate(-62,-46) scale(1,1)"><path d="M 383.42430528342936 373.43041734493295 L 378 383 L 388.602279837662 380.0688462606158" fill="#000000" stroke="none"/></g><g transform="translate(-62,-46) scale(1,1)"><path d="M 383.42430528342936 373.43041734493295 L 378 383 L 388.602279837662 380.0688462606158 L 383.42430528342936 373.43041734493295" fill="none" stroke="#000000" stroke-miterlimit="10"/></g><g transform="translate(-62,-46) scale(1,1)"><path d="M 89 278 L 142.18994140625 278 Q 152.18994140625 278 152.18994140625 288 L 152.18994140625 323 Q 152.18994140625 333 142.18994140625 333 L 89 333 Q 79 333 79 323 L 79 288 Q 79 278 89 278 Z" fill="#C0C0C0" opacity="0.2" stroke="none"/></g><g transform="translate(-62,-46) scale(1,1)"><path d="M 82 271 L 135.18994140625 271 Q 145.18994140625 271 145.18994140625 281 L 145.18994140625 316 Q 145.18994140625 326 135.18994140625 326 L 82 326 Q 72 326 72 316 L 72 281 Q 72 271 82 271 Z" fill="#d8f2ff" stroke="none"/></g><g transform="translate(-62,-46) scale(1,1)"><path d="M 82 271 L 135.18994140625 271 Q 145.18994140625 271 145.18994140625 281 L 145.18994140625 316 Q 145.18994140625 326 135.18994140625 326 L 82 326 Q 72 326 72 316 L 72 281 Q 72 271 82 271 Z" fill="none" stroke="#000000" stroke-miterlimit="10"/></g><g transform="translate(-62,-46) scale(1,1)"><path d="M 72 294 L 145.18994140625 294" fill="none" stroke="#000000" stroke-miterlimit="10"/></g><g transform="translate(-62,-46) scale(1,1)"><g><path fill="none" stroke="none"/><text fill="#000000" font-family="Arial" font-size="13px" font-style="normal" font-weight="normal" stroke="none" text-decoration="none" x="82.220458984375" y="315.5">Buisness</text></g></g><g transform="translate(-62,-46) scale(1,1)"><g><path fill="none" stroke="none"/><text fill="#000000" font-family="Arial" font-size="13px" font-style="normal" font-weight="normal" stroke="none" text-decoration="none" x="108.594970703125" y="288.5"/></g></g><g transform="translate(-62,-46) scale(1,1)"><rect fill="#C0C0C0" height="32" opacity="0.2" stroke="none" width="48" x="217" y="289"/></g><g transform="translate(-62,-46) scale(1,1)"><rect fill="#a3e0ff" height="32" stroke="none" width="48" x="210" y="282"/></g><g transform="translate(-62,-46) scale(1,1)"><path d="M 210 282 L 258 282 L 258 314 L 210 314 L 210 282 Z Z" fill="none" stroke="#000000" stroke-miterlimit="10"/></g><g transform="translate(-62,-46) scale(1,1)"><g><path fill="none" stroke="none"/><text fill="#000000" font-family="Arial" font-size="13px" font-style="normal" font-weight="normal" stroke="none" text-decoration="none" x="234" y="299.5"/></g></g><g transform="translate(-62,-46) scale(1,1)"><g><path fill="none" stroke="none"/><text fill="#000000" font-family="Arial" font-size="13px" font-style="normal" font-weight="normal" stroke="none" text-decoration="none" x="-353.5" y="-0.5"/></g></g><g transform="translate(-62,-46) scale(1,1)"><g><path fill="none" stroke="none"/><text fill="#000000" font-family="Arial" font-size="13px" font-style="normal" font-weight="normal" stroke="none" text-decoration="none" x="232" y="303.5"/></g></g><g transform="translate(-62,-46) scale(1,1)"><g><path fill="none" stroke="none"/><text fill="#000000" font-family="Arial" font-size="13px" font-style="normal" font-weight="normal" stroke="none" text-decoration="none" x="-201.5" y="103.5"/></g></g><g transform="translate(-62,-46) scale(1,1)"><g><path fill="none" stroke="none"/><text fill="#000000" font-family="Arial" font-size="13px" font-style="normal" font-weight="normal" stroke="none" text-decoration="none" x="255" y="292.5"/></g></g><g transform="translate(-62,-46) scale(1,1)"><g><path fill="none" stroke="none"/><text fill="#000000" font-family="Arial" font-size="13px" font-style="normal" font-weight="normal" stroke="none" text-decoration="none" x="225.325927734375" y="304.5">api</text></g></g><g transform="translate(-62,-46) scale(1,1)"><g><path fill="none" stroke="none"/><text fill="#000000" font-family="Arial" font-size="13px" font-style="normal" font-weight="normal" stroke="none" text-decoration="none" x="-201.5" y="103.5"/></g></g><g transform="translate(-62,-46) scale(1,1)"><path d="M 323 304 L 258 304" fill="none" stroke="#000000" stroke-miterlimit="10"/></g><g transform="translate(-62,-46) scale(1,1)"><path d="M 268.16267485762415 299.790482243984 L 258 304 L 268.16267485762415 308.209517756016" fill="#000000" stroke="none"/></g><g transform="translate(-62,-46) scale(1,1)"><path d="M 268.16267485762415 299.790482243984 L 258 304 L 268.16267485762415 308.209517756016 L 268.16267485762415 299.790482243984" fill="none" stroke="#000000" stroke-miterlimit="10"/></g><g transform="translate(-62,-46) scale(1,1)"><path d="M 258 304 L 323 304" fill="none" stroke="#000000" stroke-miterlimit="10"/></g><g transform="translate(-62,-46) scale(1,1)"><path d="M 312.83732514237585 308.209517756016 L 323 304 L 312.83732514237585 299.790482243984" fill="#000000" stroke="none"/></g><g transform="translate(-62,-46) scale(1,1)"><path d="M 312.83732514237585 308.209517756016 L 323 304 L 312.83732514237585 299.790482243984 L 312.83732514237585 308.209517756016" fill="none" stroke="#000000" stroke-miterlimit="10"/></g><g transform="translate(-62,-46) scale(1,1)"><path d="M 210 304 L 145 304" fill="none" stroke="#000000" stroke-miterlimit="10"/></g><g transform="translate(-62,-46) scale(1,1)"><path d="M 155.16267485762415 299.790482243984 L 145 304 L 155.16267485762415 308.209517756016" fill="#000000" stroke="none"/></g><g transform="translate(-62,-46) scale(1,1)"><path d="M 155.16267485762415 299.790482243984 L 145 304 L 155.16267485762415 308.209517756016 L 155.16267485762415 299.790482243984" fill="none" stroke="#000000" stroke-miterlimit="10"/></g><g transform="translate(-62,-46) scale(1,1)"><path d="M 145 304 L 210 304" fill="none" stroke="#000000" stroke-miterlimit="10"/></g><g transform="translate(-62,-46) scale(1,1)"><path d="M 199.83732514237585 308.209517756016 L 210 304 L 199.83732514237585 299.790482243984" fill="#000000" stroke="none"/></g><g transform="translate(-62,-46) scale(1,1)"><path d="M 199.83732514237585 308.209517756016 L 210 304 L 199.83732514237585 299.790482243984 L 199.83732514237585 308.209517756016" fill="none" stroke="#000000" stroke-miterlimit="10"/></g><g transform="translate(-62,-46) scale(1,1)"><path d="M 337 207 L 253 281" fill="none" stroke="#000000" stroke-miterlimit="10"/></g><g transform="translate(-62,-46) scale(1,1)"><path d="M 257.84303468268473 271.1235120076865 L 253 281 L 263.4082742993204 277.4408110319756" fill="#000000" stroke="none"/></g><g transform="translate(-62,-46) scale(1,1)"><path d="M 257.84303468268473 271.1235120076865 L 253 281 L 263.4082742993204 277.4408110319756 L 257.84303468268473 271.1235120076865" fill="none" stroke="#000000" stroke-miterlimit="10"/></g><g transform="translate(-62,-46) scale(1,1)"><path d="M 253 281 L 337 207" fill="none" stroke="#000000" stroke-miterlimit="10"/></g><g transform="translate(-62,-46) scale(1,1)"><path d="M 332.15696531731527 216.87648799231349 L 337 207 L 326.5917257006796 210.55918896802436" fill="#000000" stroke="none"/></g><g transform="translate(-62,-46) scale(1,1)"><path d="M 332.15696531731527 216.87648799231349 L 337 207 L 326.5917257006796 210.55918896802436 L 332.15696531731527 216.87648799231349" fill="none" stroke="#000000" stroke-miterlimit="10"/></g><g transform="translate(-62,-46) scale(1,1)"><path d="M 336 383 L 254 315" fill="none" stroke="#000000" stroke-miterlimit="10"/></g><g transform="translate(-62,-46) scale(1,1)"><path d="M 264.5098860479061 318.24689009053725 L 254 315 L 259.13571369318595 324.72750969475857" fill="#000000" stroke="none"/></g><g transform="translate(-62,-46) scale(1,1)"><path d="M 264.5098860479061 318.24689009053725 L 254 315 L 259.13571369318595 324.72750969475857 L 264.5098860479061 318.24689009053725" fill="none" stroke="#000000" stroke-miterlimit="10"/></g><g transform="translate(-62,-46) scale(1,1)"><path d="M 254 315 L 336 383" fill="none" stroke="#000000" stroke-miterlimit="10"/></g><g transform="translate(-62,-46) scale(1,1)"><path d="M 325.4901139520939 379.75310990946275 L 336 383 L 330.86428630681405 373.27249030524143" fill="#000000" stroke="none"/></g><g transform="translate(-62,-46) scale(1,1)"><path d="M 325.4901139520939 379.75310990946275 L 336 383 L 330.86428630681405 373.27249030524143 L 325.4901139520939 379.75310990946275" fill="none" stroke="#000000" stroke-miterlimit="10"/></g><g transform="translate(-62,-46) scale(1,1)"><g><path fill="none" stroke="none"/><text fill="#000000" font-family="Arial" font-size="20px" font-style="normal" font-weight="normal" stroke="none" text-decoration="none" x="77" y="81">Service Oriented</text><text fill="#000000" font-family="Arial" font-size="20px" font-style="normal" font-weight="normal" stroke="none" text-decoration="none" x="77" y="101">Architecture</text></g></g></g></svg>