<?xml version="1.0" encoding="UTF-8" standalone="no"?><svg xmlns="http://www.w3.org/2000/svg" xmlns:xlink="http://www.w3.org/1999/xlink" height="390" version="1.1" width="683"><defs/><g><g transform="translate(-86,-62) scale(1,1)"><path d="M 277 298 L 450 298 L 450 447 L 277 447" fill="#C0C0C0" opacity="0.2" stroke="none"/></g><g transform="translate(-86,-62) scale(1,1)"><path d="M 277 298 L 287 288 L 460 288 L 450 298" fill="#C0C0C0" opacity="0.2" stroke="none"/></g><g transform="translate(-86,-62) scale(1,1)"><path d="M 460 288 L 450 298 L 450 447 L 460 437" fill="#C0C0C0" opacity="0.2" stroke="none"/></g><g transform="translate(-86,-62) scale(1,1)"><path d="M 270 291 L 443 291 L 443 440 L 270 440" fill="#f5fcff" stroke="none"/></g><g transform="translate(-86,-62) scale(1,1)"><path d="M 270 291 L 280 281 L 453 281 L 443 291" fill="#f5fcff" stroke="none"/></g><g transform="translate(-86,-62) scale(1,1)"><path d="M 453 281 L 443 291 L 443 440 L 453 430" fill="#f5fcff" stroke="none"/></g><g transform="translate(-86,-62) scale(1,1)"><path d="M 270 291 L 443 291 L 443 440 L 270 440 L 270 291" fill="none" stroke="#d5d5d5" stroke-miterlimit="10"/></g><g transform="translate(-86,-62) scale(1,1)"><path d="M 270 291 L 280 281 L 453 281 L 443 291 L 270 291" fill="none" stroke="#d5d5d5" stroke-miterlimit="10"/></g><g transform="translate(-86,-62) scale(1,1)"><path d="M 453 281 L 443 291 L 443 440 L 453 430 L 453 281" fill="none" stroke="#d5d5d5" stroke-miterlimit="10"/></g><g transform="translate(-86,-62) scale(1,1)"><g><path fill="none" stroke="none"/><text fill="#000000" font-family="Arial" font-size="13px" font-style="normal" font-weight="normal" stroke="none" text-decoration="none" x="331.7109375" y="308.5">«server»</text></g></g><g transform="translate(-86,-62) scale(1,1)"><g><path fill="none" stroke="none"/><text fill="#000000" font-family="Arial" font-size="13px" font-style="normal" font-weight="bold" stroke="none" text-decoration="none" x="330.62548828125" y="323.5">Buisness</text></g></g><g transform="translate(-86,-62) scale(1,1)"><path d="M 582 299 L 755 299 L 755 448 L 582 448" fill="#C0C0C0" opacity="0.2" stroke="none"/></g><g transform="translate(-86,-62) scale(1,1)"><path d="M 582 299 L 592 289 L 765 289 L 755 299" fill="#C0C0C0" opacity="0.2" stroke="none"/></g><g transform="translate(-86,-62) scale(1,1)"><path d="M 765 289 L 755 299 L 755 448 L 765 438" fill="#C0C0C0" opacity="0.2" stroke="none"/></g><g transform="translate(-86,-62) scale(1,1)"><path d="M 575 292 L 748 292 L 748 441 L 575 441" fill="#fff4f4" stroke="none"/></g><g transform="translate(-86,-62) scale(1,1)"><path d="M 575 292 L 585 282 L 758 282 L 748 292" fill="#fff4f4" stroke="none"/></g><g transform="translate(-86,-62) scale(1,1)"><path d="M 758 282 L 748 292 L 748 441 L 758 431" fill="#fff4f4" stroke="none"/></g><g transform="translate(-86,-62) scale(1,1)"><path d="M 575 292 L 748 292 L 748 441 L 575 441 L 575 292" fill="none" stroke="#cacaca" stroke-miterlimit="10"/></g><g transform="translate(-86,-62) scale(1,1)"><path d="M 575 292 L 585 282 L 758 282 L 748 292 L 575 292" fill="none" stroke="#cacaca" stroke-miterlimit="10"/></g><g transform="translate(-86,-62) scale(1,1)"><path d="M 758 282 L 748 292 L 748 441 L 758 431 L 758 282" fill="none" stroke="#cacaca" stroke-miterlimit="10"/></g><g transform="translate(-86,-62) scale(1,1)"><g><path fill="none" stroke="none"/><text fill="#c4c4c4" font-family="Arial" font-size="13px" font-style="normal" font-weight="normal" stroke="none" text-decoration="none" x="636.7109375" y="309.5">«server»</text></g></g><g transform="translate(-86,-62) scale(1,1)"><g><path fill="none" stroke="none"/><text fill="#c4c4c4" font-family="Arial" font-size="13px" font-style="normal" font-weight="bold" stroke="none" text-decoration="none" x="634.175048828125" y="324.5">Database</text></g></g><g transform="translate(-86,-62) scale(1,1)"><path d="M 454 313 L 575 313" fill="none" stroke="#cccccc" stroke-miterlimit="10"/></g><g transform="translate(-86,-62) scale(1,1)"><g><path fill="none" stroke="none"/><text fill="#d8d8d8" font-family="Arial" font-size="13px" font-style="normal" font-weight="normal" stroke="none" text-decoration="none" x="498.5" y="289.5">«sql»</text></g></g><g transform="translate(-86,-62) scale(1,1)"><rect fill="#C0C0C0" height="44" opacity="0.2" stroke="none" width="98.44091796875" x="624" y="369"/></g><g transform="translate(-86,-62) scale(1,1)"><rect fill="#ffffff" height="44" stroke="none" width="98.44091796875" x="617" y="362"/></g><g transform="translate(-86,-62) scale(1,1)"><path d="M 617 362 L 715.44091796875 362 L 715.44091796875 406 L 617 406 L 617 362 Z Z" fill="none" stroke="#000000" stroke-miterlimit="10"/></g><g transform="translate(-86,-62) scale(1,1)"><rect fill="#ffffff" height="10" stroke="none" width="20" x="607" y="369"/></g><g transform="translate(-86,-62) scale(1,1)"><path d="M 607 369 L 627 369 L 627 379 L 607 379 L 607 369 Z Z" fill="none" stroke="#000000" stroke-miterlimit="10"/></g><g transform="translate(-86,-62) scale(1,1)"><rect fill="#ffffff" height="10" stroke="none" width="20" x="607" y="389"/></g><g transform="translate(-86,-62) scale(1,1)"><path d="M 607 389 L 627 389 L 627 399 L 607 399 L 607 389 Z Z" fill="none" stroke="#000000" stroke-miterlimit="10"/></g><g transform="translate(-86,-62) scale(1,1)"><g><path fill="none" stroke="none"/><text fill="#000000" font-family="Arial" font-size="13px" font-style="normal" font-weight="bold" stroke="none" text-decoration="none" x="658.214111328125" y="381.5">SQL</text></g></g><g transform="translate(-86,-62) scale(1,1)"><path d="M 511.5 380.5 C 511.5 374.1487248 516.6487248 369 523 369 C 529.3512752 369 534.5 374.1487248 534.5 380.5 C 534.5 386.8512752 529.3512752 392 523 392 C 516.6487248 392 511.5 386.8512752 511.5 380.5 Z" fill="#C0C0C0" opacity="0.2" stroke="none"/></g><g transform="translate(-86,-62) scale(1,1)"><path d="M 516 384.5 A 11.5 11.5 0 0 1 516 361.5" fill="none" stroke="#000000" stroke-miterlimit="10"/></g><g transform="translate(-86,-62) scale(1,1)"><path d="M 507.5 373.5 C 507.5 368.8055792 511.3055792 365 516 365 C 520.6944208 365 524.5 368.8055792 524.5 373.5 C 524.5 378.1944208 520.6944208 382 516 382 C 511.3055792 382 507.5 378.1944208 507.5 373.5 Z" fill="#ffffff" stroke="none"/></g><g transform="translate(-86,-62) scale(1,1)"><path d="M 507.5 373.5 C 507.5 368.8055792 511.3055792 365 516 365 C 520.6944208 365 524.5 368.8055792 524.5 373.5 C 524.5 378.1944208 520.6944208 382 516 382 C 511.3055792 382 507.5 378.1944208 507.5 373.5 Z" fill="none" stroke="#000000" stroke-miterlimit="10"/></g><g transform="translate(-86,-62) scale(1,1)"><g><path fill="none" stroke="none"/><text fill="#dfdfdf" font-family="Arial" font-size="13px" font-style="normal" font-weight="bold" stroke="none" text-decoration="none" x="486.010498046875" y="404.5">Connector</text></g></g><g transform="translate(-86,-62) scale(1,1)"><rect fill="#C0C0C0" height="44" opacity="0.2" stroke="none" width="98.44091796875" x="317" y="370"/></g><g transform="translate(-86,-62) scale(1,1)"><rect fill="#ffffff" height="44" stroke="none" width="98.44091796875" x="310" y="363"/></g><g transform="translate(-86,-62) scale(1,1)"><path d="M 310 363 L 408.44091796875 363 L 408.44091796875 407 L 310 407 L 310 363 Z Z" fill="none" stroke="#000000" stroke-miterlimit="10"/></g><g transform="translate(-86,-62) scale(1,1)"><rect fill="#ffffff" height="10" stroke="none" width="20" x="300" y="370"/></g><g transform="translate(-86,-62) scale(1,1)"><path d="M 300 370 L 320 370 L 320 380 L 300 380 L 300 370 Z Z" fill="none" stroke="#000000" stroke-miterlimit="10"/></g><g transform="translate(-86,-62) scale(1,1)"><rect fill="#ffffff" height="10" stroke="none" width="20" x="300" y="390"/></g><g transform="translate(-86,-62) scale(1,1)"><path d="M 300 390 L 320 390 L 320 400 L 300 400 L 300 390 Z Z" fill="none" stroke="#000000" stroke-miterlimit="10"/></g><g transform="translate(-86,-62) scale(1,1)"><g><path fill="none" stroke="none"/><text fill="#000000" font-family="Arial" font-size="13px" font-style="normal" font-weight="bold" stroke="none" text-decoration="none" x="347.246826171875" y="382.5">JDBC</text></g></g><g transform="translate(-86,-62) scale(1,1)"><path d="M 607 373 L 527.5 373" fill="none" stroke="#c6c6c6" stroke-miterlimit="10"/></g><g transform="translate(-86,-62) scale(1,1)"><path d="M 408 373 L 504.5 373" fill="none" stroke="#c6c6c6" stroke-miterlimit="10"/></g><g transform="translate(-86,-62) scale(1,1)"><path d="M 261 282 L 434 282 L 434 431 L 261 431" fill="#C0C0C0" opacity="0.2" stroke="none"/></g><g transform="translate(-86,-62) scale(1,1)"><path d="M 261 282 L 271 272 L 444 272 L 434 282" fill="#C0C0C0" opacity="0.2" stroke="none"/></g><g transform="translate(-86,-62) scale(1,1)"><path d="M 444 272 L 434 282 L 434 431 L 444 421" fill="#C0C0C0" opacity="0.2" stroke="none"/></g><g transform="translate(-86,-62) scale(1,1)"><path d="M 254 275 L 427 275 L 427 424 L 254 424" fill="#e9f8ff" stroke="none"/></g><g transform="translate(-86,-62) scale(1,1)"><path d="M 254 275 L 264 265 L 437 265 L 427 275" fill="#e9f8ff" stroke="none"/></g><g transform="translate(-86,-62) scale(1,1)"><path d="M 437 265 L 427 275 L 427 424 L 437 414" fill="#e9f8ff" stroke="none"/></g><g transform="translate(-86,-62) scale(1,1)"><path d="M 254 275 L 427 275 L 427 424 L 254 424 L 254 275" fill="none" stroke="#787878" stroke-miterlimit="10"/></g><g transform="translate(-86,-62) scale(1,1)"><path d="M 254 275 L 264 265 L 437 265 L 427 275 L 254 275" fill="none" stroke="#787878" stroke-miterlimit="10"/></g><g transform="translate(-86,-62) scale(1,1)"><path d="M 437 265 L 427 275 L 427 424 L 437 414 L 437 265" fill="none" stroke="#787878" stroke-miterlimit="10"/></g><g transform="translate(-86,-62) scale(1,1)"><g><path fill="none" stroke="none"/><text fill="#000000" font-family="Arial" font-size="13px" font-style="normal" font-weight="normal" stroke="none" text-decoration="none" x="315.7109375" y="292.5">«server»</text></g></g><g transform="translate(-86,-62) scale(1,1)"><g><path fill="none" stroke="none"/><text fill="#000000" font-family="Arial" font-size="13px" font-style="normal" font-weight="bold" stroke="none" text-decoration="none" x="314.62548828125" y="307.5">Buisness</text></g></g><g transform="translate(-86,-62) scale(1,1)"><path d="M 566 283 L 739 283 L 739 432 L 566 432" fill="#C0C0C0" opacity="0.2" stroke="none"/></g><g transform="translate(-86,-62) scale(1,1)"><path d="M 566 283 L 576 273 L 749 273 L 739 283" fill="#C0C0C0" opacity="0.2" stroke="none"/></g><g transform="translate(-86,-62) scale(1,1)"><path d="M 749 273 L 739 283 L 739 432 L 749 422" fill="#C0C0C0" opacity="0.2" stroke="none"/></g><g transform="translate(-86,-62) scale(1,1)"><path d="M 559 276 L 732 276 L 732 425 L 559 425" fill="#ffe6e6" stroke="none"/></g><g transform="translate(-86,-62) scale(1,1)"><path d="M 559 276 L 569 266 L 742 266 L 732 276" fill="#ffe6e6" stroke="none"/></g><g transform="translate(-86,-62) scale(1,1)"><path d="M 742 266 L 732 276 L 732 425 L 742 415" fill="#ffe6e6" stroke="none"/></g><g transform="translate(-86,-62) scale(1,1)"><path d="M 559 276 L 732 276 L 732 425 L 559 425 L 559 276" fill="none" stroke="#8a8a8a" stroke-miterlimit="10"/></g><g transform="translate(-86,-62) scale(1,1)"><path d="M 559 276 L 569 266 L 742 266 L 732 276 L 559 276" fill="none" stroke="#8a8a8a" stroke-miterlimit="10"/></g><g transform="translate(-86,-62) scale(1,1)"><path d="M 742 266 L 732 276 L 732 425 L 742 415 L 742 266" fill="none" stroke="#8a8a8a" stroke-miterlimit="10"/></g><g transform="translate(-86,-62) scale(1,1)"><g><path fill="none" stroke="none"/><text fill="#a3a3a3" font-family="Arial" font-size="13px" font-style="normal" font-weight="normal" stroke="none" text-decoration="none" x="620.7109375" y="293.5">«server»</text></g></g><g transform="translate(-86,-62) scale(1,1)"><g><path fill="none" stroke="none"/><text fill="#a3a3a3" font-family="Arial" font-size="13px" font-style="normal" font-weight="bold" stroke="none" text-decoration="none" x="618.175048828125" y="308.5">Database</text></g></g><g transform="translate(-86,-62) scale(1,1)"><path d="M 438 289 L 559 289" fill="none" stroke="#a5a5a5" stroke-miterlimit="10"/></g><g transform="translate(-86,-62) scale(1,1)"><g><path fill="none" stroke="none"/><text fill="#a7a7a7" font-family="Arial" font-size="13px" font-style="normal" font-weight="normal" stroke="none" text-decoration="none" x="482.5" y="268.5">«sql»</text></g></g><g transform="translate(-86,-62) scale(1,1)"><rect fill="#C0C0C0" height="44" opacity="0.2" stroke="none" width="98.44091796875" x="608" y="345"/></g><g transform="translate(-86,-62) scale(1,1)"><rect fill="#ffffff" height="44" stroke="none" width="98.44091796875" x="601" y="338"/></g><g transform="translate(-86,-62) scale(1,1)"><path d="M 601 338 L 699.44091796875 338 L 699.44091796875 382 L 601 382 L 601 338 Z Z" fill="none" stroke="#000000" stroke-miterlimit="10"/></g><g transform="translate(-86,-62) scale(1,1)"><rect fill="#ffffff" height="10" stroke="none" width="20" x="591" y="345"/></g><g transform="translate(-86,-62) scale(1,1)"><path d="M 591 345 L 611 345 L 611 355 L 591 355 L 591 345 Z Z" fill="none" stroke="#000000" stroke-miterlimit="10"/></g><g transform="translate(-86,-62) scale(1,1)"><rect fill="#ffffff" height="10" stroke="none" width="20" x="591" y="365"/></g><g transform="translate(-86,-62) scale(1,1)"><path d="M 591 365 L 611 365 L 611 375 L 591 375 L 591 365 Z Z" fill="none" stroke="#000000" stroke-miterlimit="10"/></g><g transform="translate(-86,-62) scale(1,1)"><g><path fill="none" stroke="none"/><text fill="#000000" font-family="Arial" font-size="13px" font-style="normal" font-weight="bold" stroke="none" text-decoration="none" x="642.214111328125" y="357.5">SQL</text></g></g><g transform="translate(-86,-62) scale(1,1)"><path d="M 495.5 356.5 C 495.5 350.1487248 500.6487248 345 507 345 C 513.3512752 345 518.5 350.1487248 518.5 356.5 C 518.5 362.8512752 513.3512752 368 507 368 C 500.6487248 368 495.5 362.8512752 495.5 356.5 Z" fill="#C0C0C0" opacity="0.2" stroke="none"/></g><g transform="translate(-86,-62) scale(1,1)"><path d="M 500 360.5 A 11.5 11.5 0 0 1 500 337.5" fill="none" stroke="#000000" stroke-miterlimit="10"/></g><g transform="translate(-86,-62) scale(1,1)"><path d="M 491.5 349.5 C 491.5 344.8055792 495.3055792 341 500 341 C 504.6944208 341 508.5 344.8055792 508.5 349.5 C 508.5 354.1944208 504.6944208 358 500 358 C 495.3055792 358 491.5 354.1944208 491.5 349.5 Z" fill="#ffffff" stroke="none"/></g><g transform="translate(-86,-62) scale(1,1)"><path d="M 491.5 349.5 C 491.5 344.8055792 495.3055792 341 500 341 C 504.6944208 341 508.5 344.8055792 508.5 349.5 C 508.5 354.1944208 504.6944208 358 500 358 C 495.3055792 358 491.5 354.1944208 491.5 349.5 Z" fill="none" stroke="#000000" stroke-miterlimit="10"/></g><g transform="translate(-86,-62) scale(1,1)"><g><path fill="none" stroke="none"/><text fill="#aaa9a9" font-family="Arial" font-size="13px" font-style="normal" font-weight="bold" stroke="none" text-decoration="none" x="470.010498046875" y="380.5">Connector</text></g></g><g transform="translate(-86,-62) scale(1,1)"><rect fill="#C0C0C0" height="44" opacity="0.2" stroke="none" width="98.44091796875" x="301" y="346"/></g><g transform="translate(-86,-62) scale(1,1)"><rect fill="#ffffff" height="44" stroke="none" width="98.44091796875" x="294" y="339"/></g><g transform="translate(-86,-62) scale(1,1)"><path d="M 294 339 L 392.44091796875 339 L 392.44091796875 383 L 294 383 L 294 339 Z Z" fill="none" stroke="#000000" stroke-miterlimit="10"/></g><g transform="translate(-86,-62) scale(1,1)"><rect fill="#ffffff" height="10" stroke="none" width="20" x="284" y="346"/></g><g transform="translate(-86,-62) scale(1,1)"><path d="M 284 346 L 304 346 L 304 356 L 284 356 L 284 346 Z Z" fill="none" stroke="#000000" stroke-miterlimit="10"/></g><g transform="translate(-86,-62) scale(1,1)"><rect fill="#ffffff" height="10" stroke="none" width="20" x="284" y="366"/></g><g transform="translate(-86,-62) scale(1,1)"><path d="M 284 366 L 304 366 L 304 376 L 284 376 L 284 366 Z Z" fill="none" stroke="#000000" stroke-miterlimit="10"/></g><g transform="translate(-86,-62) scale(1,1)"><g><path fill="none" stroke="none"/><text fill="#000000" font-family="Arial" font-size="13px" font-style="normal" font-weight="bold" stroke="none" text-decoration="none" x="331.246826171875" y="358.5">JDBC</text></g></g><g transform="translate(-86,-62) scale(1,1)"><path d="M 591 349 L 511.5 349" fill="none" stroke="#919191" stroke-miterlimit="10"/></g><g transform="translate(-86,-62) scale(1,1)"><path d="M 392 349 L 488.5 349" fill="none" stroke="#919191" stroke-miterlimit="10"/></g><g transform="translate(-86,-62) scale(1,1)"><path d="M 103 177 L 168.80810546875 177 L 168.80810546875 213 L 103 213" fill="#C0C0C0" opacity="0.2" stroke="none"/></g><g transform="translate(-86,-62) scale(1,1)"><path d="M 103 177 L 113 167 L 178.80810546875 167 L 168.80810546875 177" fill="#C0C0C0" opacity="0.2" stroke="none"/></g><g transform="translate(-86,-62) scale(1,1)"><path d="M 178.80810546875 167 L 168.80810546875 177 L 168.80810546875 213 L 178.80810546875 203" fill="#C0C0C0" opacity="0.2" stroke="none"/></g><g transform="translate(-86,-62) scale(1,1)"><path d="M 96 170 L 161.80810546875 170 L 161.80810546875 206 L 96 206" fill="#ffffff" stroke="none"/></g><g transform="translate(-86,-62) scale(1,1)"><path d="M 96 170 L 106 160 L 171.80810546875 160 L 161.80810546875 170" fill="#ffffff" stroke="none"/></g><g transform="translate(-86,-62) scale(1,1)"><path d="M 171.80810546875 160 L 161.80810546875 170 L 161.80810546875 206 L 171.80810546875 196" fill="#ffffff" stroke="none"/></g><g transform="translate(-86,-62) scale(1,1)"><path d="M 96 170 L 161.80810546875 170 L 161.80810546875 206 L 96 206 L 96 170" fill="none" stroke="#000000" stroke-miterlimit="10"/></g><g transform="translate(-86,-62) scale(1,1)"><path d="M 96 170 L 106 160 L 171.80810546875 160 L 161.80810546875 170 L 96 170" fill="none" stroke="#000000" stroke-miterlimit="10"/></g><g transform="translate(-86,-62) scale(1,1)"><path d="M 171.80810546875 160 L 161.80810546875 170 L 161.80810546875 206 L 171.80810546875 196 L 171.80810546875 160" fill="none" stroke="#000000" stroke-miterlimit="10"/></g><g transform="translate(-86,-62) scale(1,1)"><g><path fill="none" stroke="none"/><text fill="#000000" font-family="Arial" font-size="13px" font-style="normal" font-weight="bold" stroke="none" text-decoration="none" x="112.785888671875" y="189.5">Client</text></g></g><g transform="translate(-86,-62) scale(1,1)"><path d="M 246 264 L 419 264 L 419 413 L 246 413" fill="#C0C0C0" opacity="0.2" stroke="none"/></g><g transform="translate(-86,-62) scale(1,1)"><path d="M 246 264 L 256 254 L 429 254 L 419 264" fill="#C0C0C0" opacity="0.2" stroke="none"/></g><g transform="translate(-86,-62) scale(1,1)"><path d="M 429 254 L 419 264 L 419 413 L 429 403" fill="#C0C0C0" opacity="0.2" stroke="none"/></g><g transform="translate(-86,-62) scale(1,1)"><path d="M 239 257 L 412 257 L 412 406 L 239 406" fill="#d8f2ff" stroke="none"/></g><g transform="translate(-86,-62) scale(1,1)"><path d="M 239 257 L 249 247 L 422 247 L 412 257" fill="#d8f2ff" stroke="none"/></g><g transform="translate(-86,-62) scale(1,1)"><path d="M 422 247 L 412 257 L 412 406 L 422 396" fill="#d8f2ff" stroke="none"/></g><g transform="translate(-86,-62) scale(1,1)"><path d="M 239 257 L 412 257 L 412 406 L 239 406 L 239 257" fill="none" stroke="#000000" stroke-miterlimit="10"/></g><g transform="translate(-86,-62) scale(1,1)"><path d="M 239 257 L 249 247 L 422 247 L 412 257 L 239 257" fill="none" stroke="#000000" stroke-miterlimit="10"/></g><g transform="translate(-86,-62) scale(1,1)"><path d="M 422 247 L 412 257 L 412 406 L 422 396 L 422 247" fill="none" stroke="#000000" stroke-miterlimit="10"/></g><g transform="translate(-86,-62) scale(1,1)"><g><path fill="none" stroke="none"/><text fill="#000000" font-family="Arial" font-size="13px" font-style="normal" font-weight="normal" stroke="none" text-decoration="none" x="300.7109375" y="274.5">«server»</text></g></g><g transform="translate(-86,-62) scale(1,1)"><g><path fill="none" stroke="none"/><text fill="#000000" font-family="Arial" font-size="13px" font-style="normal" font-weight="bold" stroke="none" text-decoration="none" x="299.62548828125" y="289.5">Buisness</text></g></g><g transform="translate(-86,-62) scale(1,1)"><path d="M 551 265 L 724 265 L 724 414 L 551 414" fill="#C0C0C0" opacity="0.2" stroke="none"/></g><g transform="translate(-86,-62) scale(1,1)"><path d="M 551 265 L 561 255 L 734 255 L 724 265" fill="#C0C0C0" opacity="0.2" stroke="none"/></g><g transform="translate(-86,-62) scale(1,1)"><path d="M 734 255 L 724 265 L 724 414 L 734 404" fill="#C0C0C0" opacity="0.2" stroke="none"/></g><g transform="translate(-86,-62) scale(1,1)"><path d="M 544 258 L 717 258 L 717 407 L 544 407" fill="#ffd8d8" stroke="none"/></g><g transform="translate(-86,-62) scale(1,1)"><path d="M 544 258 L 554 248 L 727 248 L 717 258" fill="#ffd8d8" stroke="none"/></g><g transform="translate(-86,-62) scale(1,1)"><path d="M 727 248 L 717 258 L 717 407 L 727 397" fill="#ffd8d8" stroke="none"/></g><g transform="translate(-86,-62) scale(1,1)"><path d="M 544 258 L 717 258 L 717 407 L 544 407 L 544 258" fill="none" stroke="#000000" stroke-miterlimit="10"/></g><g transform="translate(-86,-62) scale(1,1)"><path d="M 544 258 L 554 248 L 727 248 L 717 258 L 544 258" fill="none" stroke="#000000" stroke-miterlimit="10"/></g><g transform="translate(-86,-62) scale(1,1)"><path d="M 727 248 L 717 258 L 717 407 L 727 397 L 727 248" fill="none" stroke="#000000" stroke-miterlimit="10"/></g><g transform="translate(-86,-62) scale(1,1)"><g><path fill="none" stroke="none"/><text fill="#000000" font-family="Arial" font-size="13px" font-style="normal" font-weight="normal" stroke="none" text-decoration="none" x="605.7109375" y="275.5">«server»</text></g></g><g transform="translate(-86,-62) scale(1,1)"><g><path fill="none" stroke="none"/><text fill="#000000" font-family="Arial" font-size="13px" font-style="normal" font-weight="bold" stroke="none" text-decoration="none" x="603.175048828125" y="290.5">Database</text></g></g><g transform="translate(-86,-62) scale(1,1)"><path d="M 136 207 L 136 336 L 239 336" fill="none" stroke="#000000" stroke-miterlimit="10"/></g><g transform="translate(-86,-62) scale(1,1)"><g><path fill="none" stroke="none"/><text fill="#000000" font-family="Arial" font-size="13px" font-style="normal" font-weight="normal" stroke="none" text-decoration="none" x="142.5" y="324.5">«REST|SOAP»</text></g></g><g transform="translate(-86,-62) scale(1,1)"><path d="M 423 271 L 544 271" fill="none" stroke="#000000" stroke-miterlimit="10"/></g><g transform="translate(-86,-62) scale(1,1)"><g><path fill="none" stroke="none"/><text fill="#000000" font-family="Arial" font-size="13px" font-style="normal" font-weight="normal" stroke="none" text-decoration="none" x="467.5" y="247.5">«sql»</text></g></g><g transform="translate(-86,-62) scale(1,1)"><rect fill="#C0C0C0" height="44" opacity="0.2" stroke="none" width="98.44091796875" x="593" y="327"/></g><g transform="translate(-86,-62) scale(1,1)"><rect fill="#ffadad" height="44" stroke="none" width="98.44091796875" x="586" y="320"/></g><g transform="translate(-86,-62) scale(1,1)"><path d="M 586 320 L 684.44091796875 320 L 684.44091796875 364 L 586 364 L 586 320 Z Z" fill="none" stroke="#000000" stroke-miterlimit="10"/></g><g transform="translate(-86,-62) scale(1,1)"><rect fill="#ffadad" height="10" stroke="none" width="20" x="576" y="327"/></g><g transform="translate(-86,-62) scale(1,1)"><path d="M 576 327 L 596 327 L 596 337 L 576 337 L 576 327 Z Z" fill="none" stroke="#000000" stroke-miterlimit="10"/></g><g transform="translate(-86,-62) scale(1,1)"><rect fill="#ffadad" height="10" stroke="none" width="20" x="576" y="347"/></g><g transform="translate(-86,-62) scale(1,1)"><path d="M 576 347 L 596 347 L 596 357 L 576 357 L 576 347 Z Z" fill="none" stroke="#000000" stroke-miterlimit="10"/></g><g transform="translate(-86,-62) scale(1,1)"><g><path fill="none" stroke="none"/><text fill="#000000" font-family="Arial" font-size="13px" font-style="normal" font-weight="bold" stroke="none" text-decoration="none" x="627.214111328125" y="339.5">SQL</text></g></g><g transform="translate(-86,-62) scale(1,1)"><path d="M 480.5 338.5 C 480.5 332.1487248 485.6487248 327 492 327 C 498.3512752 327 503.5 332.1487248 503.5 338.5 C 503.5 344.8512752 498.3512752 350 492 350 C 485.6487248 350 480.5 344.8512752 480.5 338.5 Z" fill="#C0C0C0" opacity="0.2" stroke="none"/></g><g transform="translate(-86,-62) scale(1,1)"><path d="M 485 342.5 A 11.5 11.5 0 0 1 485 319.5" fill="none" stroke="#000000" stroke-miterlimit="10"/></g><g transform="translate(-86,-62) scale(1,1)"><path d="M 476.5 331.5 C 476.5 326.8055792 480.3055792 323 485 323 C 489.6944208 323 493.5 326.8055792 493.5 331.5 C 493.5 336.1944208 489.6944208 340 485 340 C 480.3055792 340 476.5 336.1944208 476.5 331.5 Z" fill="#ffffff" stroke="none"/></g><g transform="translate(-86,-62) scale(1,1)"><path d="M 476.5 331.5 C 476.5 326.8055792 480.3055792 323 485 323 C 489.6944208 323 493.5 326.8055792 493.5 331.5 C 493.5 336.1944208 489.6944208 340 485 340 C 480.3055792 340 476.5 336.1944208 476.5 331.5 Z" fill="none" stroke="#000000" stroke-miterlimit="10"/></g><g transform="translate(-86,-62) scale(1,1)"><g><path fill="none" stroke="none"/><text fill="#000000" font-family="Arial" font-size="13px" font-style="normal" font-weight="bold" stroke="none" text-decoration="none" x="455.010498046875" y="362.5">Connector</text></g></g><g transform="translate(-86,-62) scale(1,1)"><rect fill="#C0C0C0" height="44" opacity="0.2" stroke="none" width="98.44091796875" x="286" y="328"/></g><g transform="translate(-86,-62) scale(1,1)"><rect fill="#a3e0ff" height="44" stroke="none" width="98.44091796875" x="279" y="321"/></g><g transform="translate(-86,-62) scale(1,1)"><path d="M 279 321 L 377.44091796875 321 L 377.44091796875 365 L 279 365 L 279 321 Z Z" fill="none" stroke="#000000" stroke-miterlimit="10"/></g><g transform="translate(-86,-62) scale(1,1)"><rect fill="#a3e0ff" height="10" stroke="none" width="20" x="269" y="328"/></g><g transform="translate(-86,-62) scale(1,1)"><path d="M 269 328 L 289 328 L 289 338 L 269 338 L 269 328 Z Z" fill="none" stroke="#000000" stroke-miterlimit="10"/></g><g transform="translate(-86,-62) scale(1,1)"><rect fill="#a3e0ff" height="10" stroke="none" width="20" x="269" y="348"/></g><g transform="translate(-86,-62) scale(1,1)"><path d="M 269 348 L 289 348 L 289 358 L 269 358 L 269 348 Z Z" fill="none" stroke="#000000" stroke-miterlimit="10"/></g><g transform="translate(-86,-62) scale(1,1)"><g><path fill="none" stroke="none"/><text fill="#000000" font-family="Arial" font-size="13px" font-style="normal" font-weight="bold" stroke="none" text-decoration="none" x="316.246826171875" y="340.5">JDBC</text></g></g><g transform="translate(-86,-62) scale(1,1)"><path d="M 576 331 L 496.5 331" fill="none" stroke="#000000" stroke-miterlimit="10"/></g><g transform="translate(-86,-62) scale(1,1)"><path d="M 377 331 L 473.5 331" fill="none" stroke="#000000" stroke-miterlimit="10"/></g><g transform="translate(-86,-62) scale(1,1)"><g><path fill="none" stroke="none"/><text fill="#000000" font-family="Arial" font-size="20px" font-style="normal" font-weight="normal" stroke="none" text-decoration="none" x="101" y="97">Client Side</text></g></g><g transform="translate(-86,-62) scale(1,1)"><path d="M 247 177 L 420 177 L 420 214 L 247 214" fill="#C0C0C0" opacity="0.2" stroke="none"/></g><g transform="translate(-86,-62) scale(1,1)"><path d="M 247 177 L 257 167 L 430 167 L 420 177" fill="#C0C0C0" opacity="0.2" stroke="none"/></g><g transform="translate(-86,-62) scale(1,1)"><path d="M 430 167 L 420 177 L 420 214 L 430 204" fill="#C0C0C0" opacity="0.2" stroke="none"/></g><g transform="translate(-86,-62) scale(1,1)"><path d="M 240 170 L 413 170 L 413 207 L 240 207" fill="#ebffd8" stroke="none"/></g><g transform="translate(-86,-62) scale(1,1)"><path d="M 240 170 L 250 160 L 423 160 L 413 170" fill="#ebffd8" stroke="none"/></g><g transform="translate(-86,-62) scale(1,1)"><path d="M 423 160 L 413 170 L 413 207 L 423 197" fill="#ebffd8" stroke="none"/></g><g transform="translate(-86,-62) scale(1,1)"><path d="M 240 170 L 413 170 L 413 207 L 240 207 L 240 170" fill="none" stroke="#000000" stroke-miterlimit="10"/></g><g transform="translate(-86,-62) scale(1,1)"><path d="M 240 170 L 250 160 L 423 160 L 413 170 L 240 170" fill="none" stroke="#000000" stroke-miterlimit="10"/></g><g transform="translate(-86,-62) scale(1,1)"><path d="M 423 160 L 413 170 L 413 207 L 423 197 L 423 160" fill="none" stroke="#000000" stroke-miterlimit="10"/></g><g transform="translate(-86,-62) scale(1,1)"><g><path fill="none" stroke="none"/><text fill="#000000" font-family="Arial" font-size="13px" font-style="normal" font-weight="normal" stroke="none" text-decoration="none" x="301.7109375" y="187.5">«server»</text></g></g><g transform="translate(-86,-62) scale(1,1)"><g><path fill="none" stroke="none"/><text fill="#000000" font-family="Arial" font-size="13px" font-style="normal" font-weight="bold" stroke="none" text-decoration="none" x="312.917724609375" y="202.5">CDN</text></g></g><g transform="translate(-86,-62) scale(1,1)"><path d="M 173 186 L 240 186" fill="none" stroke="#000000" stroke-miterlimit="10"/></g><g transform="translate(-86,-62) scale(1,1)"><g><path fill="none" stroke="none"/><text fill="#000000" font-family="Arial" font-size="13px" font-style="normal" font-weight="normal" stroke="none" text-decoration="none" x="187.5" y="162.5">«http»</text></g></g></g></svg>